<svg xmlns="http://www.w3.org/2000/svg" xmlns:xlink="http://www.w3.org/1999/xlink" width="190.918" height="117.562" viewBox="0 0 190.918 117.562">
  <defs>
    <clipPath id="clip-path">
      <rect id="Rectangle_106" data-name="Rectangle 106" width="3.393" height="3.431"/>
    </clipPath>
  </defs>
  <g id="surface1" transform="translate(-73.09 -45)">
    <path id="Tracé_3571" data-name="Tracé 3571" d="M196.39,58.768l17.8,17.594,17.236-17.821L214.123,45Z" transform="translate(-45.822)" fill="#46b790"/>
    <path id="Tracé_3572" data-name="Tracé 3572" d="M200.043,98.131l-15.5,15.86L166.13,95.831l.031-.031a251.978,251.978,0,0,0,33.882,2.331" transform="translate(-34.576 -18.879)" fill="#1ca2b4"/>
    <path id="Tracé_3573" data-name="Tracé 3573" d="M262.9,95.181l-17.733,18.543-16-15.879.019-.019a241.848,241.848,0,0,0,33.605-2.746" transform="translate(-58.004 -18.611)" fill="#1ca2b4"/>
    <path id="Tracé_3574" data-name="Tracé 3574" d="M199.7,120.1l15.741-15.891,15.973,15.822-15.628,16.023Z" transform="translate(-47.052 -22.004)" fill="#09838f"/>
    <path id="Tracé_3575" data-name="Tracé 3575" d="M140.09,118.406,154.744,99.8l17.3,18.751L156.459,134.7Z" transform="translate(-24.899 -20.365)" fill="#038373"/>
    <path id="Tracé_3576" data-name="Tracé 3576" d="M259.23,118.488,276.378,99.8l14.138,18.128L274.958,134.1Z" transform="translate(-69.175 -20.365)" fill="#038373"/>
    <path id="Tracé_3577" data-name="Tracé 3577" d="M288.82,149.3l15.527-16.2,7.239,15.144-8.634,15.144Z" transform="translate(-80.172 -32.741)" fill="#1ca2b4"/>
    <path id="Tracé_3578" data-name="Tracé 3578" d="M229.74,149.908l15.584-16.118,14.528,14.71-14.126,9.312Z" transform="translate(-58.216 -32.997)" fill="#09838f"/>
    <path id="Tracé_3579" data-name="Tracé 3579" d="M172.48,149.206l14.5-14.836,15.772,15.791-17.154,8.351Z" transform="translate(-36.936 -33.213)" fill="#0b979f"/>
    <path id="Tracé_3580" data-name="Tracé 3580" d="M124.95,149.679,132.1,134.63l15.979,15.854-14.264,14.365Z" transform="translate(-19.273 -33.309)" fill="#1ca2b4"/>
    <path id="Tracé_3581" data-name="Tracé 3581" d="M200.065,88.875A250.906,250.906,0,0,1,166.19,86.55L182,70.91" transform="translate(-34.599 -9.629)" fill="#21b3bf"/>
    <path id="Tracé_3582" data-name="Tracé 3582" d="M262.815,85.86a242.817,242.817,0,0,1-33.605,2.746L246.993,70.27" transform="translate(-58.019 -9.391)" fill="#21b3bf"/>
    <path id="Tracé_3583" data-name="Tracé 3583" d="M224.61,45l.069,31.362,17.236-17.821" transform="translate(-56.309)" fill="#36a38f"/>
    <path id="Tracé_3584" data-name="Tracé 3584" d="M154.744,99.8l1.715,34.9L140.09,118.406" transform="translate(-24.899 -20.365)" fill="#0b7265"/>
    <path id="Tracé_3585" data-name="Tracé 3585" d="M124.95,149.679l23.13.8L132.1,134.63" transform="translate(-19.273 -33.309)" fill="#21b3bf"/>
    <path id="Tracé_3586" data-name="Tracé 3586" d="M172.48,157.98l30.269.949-17.154,8.351" transform="translate(-36.936 -41.987)" fill="#09838f"/>
    <path id="Tracé_3587" data-name="Tracé 3587" d="M199.7,120.1l31.714-.075L215.441,104.2" transform="translate(-47.052 -22.001)" fill="#0b979f"/>
    <path id="Tracé_3588" data-name="Tracé 3588" d="M285.67,99.8l-1.42,34.3,15.558-16.168" transform="translate(-78.473 -20.365)" fill="#0b7265"/>
    <path id="Tracé_3589" data-name="Tracé 3589" d="M229.74,149.911l30.111-1.4L245.324,133.8" transform="translate(-58.216 -33.001)" fill="#0b979f"/>
    <path id="Tracé_3590" data-name="Tracé 3590" d="M288.82,149.3l22.766-1.049-7.239-15.144" transform="translate(-80.172 -32.744)" fill="#21b3bf"/>
    <path id="Tracé_3591" data-name="Tracé 3591" d="M80.739,204.379a1.454,1.454,0,0,0,1.075-.415,1.468,1.468,0,0,0,.415-1.081,1.534,1.534,0,0,0-.415-1.1,1.548,1.548,0,0,0-2.149,0,1.534,1.534,0,0,0-.415,1.1,1.422,1.422,0,0,0,1.489,1.5" transform="translate(-2.289 -58.104)" fill="#1ca2b4"/>
    <path id="Tracé_3592" data-name="Tracé 3592" d="M81.906,207.975a2.168,2.168,0,0,0-.7,1.627v6.592a3.047,3.047,0,0,1-.9,2.074,2.884,2.884,0,0,1-1.986.836,2.734,2.734,0,0,1-1.986-.924,2.816,2.816,0,0,1-.9-1.979v-2.978a2.321,2.321,0,0,0-.66-1.7v.019a2.609,2.609,0,0,0-1.69-.666v5.278a5.031,5.031,0,0,0,1.508,3.72,5.089,5.089,0,0,0,3.733,1.5,5.179,5.179,0,0,0,3.789-1.558,5.232,5.232,0,0,0,1.307-2.356l.22-1.527v-8.64a2.532,2.532,0,0,0-1.747.685" transform="translate(0 -60.312)" fill="#1ca2b4"/>
    <path id="Tracé_3593" data-name="Tracé 3593" d="M92.68,201.31V213.3a2.335,2.335,0,0,0,.741,1.728,2.594,2.594,0,0,0,1.684.5V203.61c0-1.433-.8-2.2-2.426-2.3" transform="translate(-7.28 -58.09)" fill="#1ca2b4"/>
    <path id="Tracé_3594" data-name="Tracé 3594" d="M99.6,209.5v11.82a2.5,2.5,0,0,0,2.243-2.35v-11.8a4.742,4.742,0,0,0-1.4.572A1.654,1.654,0,0,0,99.6,209.5" transform="translate(-9.85 -60.267)" fill="#1ca2b4"/>
    <path id="Tracé_3595" data-name="Tracé 3595" d="M101.808,200.675a1.671,1.671,0,0,0-1.106-.415,1.3,1.3,0,0,0-1,.415,1.527,1.527,0,0,0-.383,1.081,1.585,1.585,0,0,0,.383,1.1,1.277,1.277,0,0,0,1,.434,1.629,1.629,0,0,0,1.106-.434,1.4,1.4,0,0,0,.49-1.1,1.354,1.354,0,0,0-.49-1.081" transform="translate(-9.748 -57.699)" fill="#1ca2b4"/>
    <g id="Groupe_63" data-name="Groupe 63" transform="translate(114.663 159.131)">
      <g id="Groupe_62" data-name="Groupe 62" clip-path="url(#clip-path)">
        <path id="Tracé_3596" data-name="Tracé 3596" d="M141.244,227.27a1.34,1.34,0,0,0-1.049.459,1.582,1.582,0,0,0-.415,1.093,1.45,1.45,0,0,0,.415,1.056,1.412,1.412,0,0,0,1.049.427,1.474,1.474,0,0,0,1.075-.427,1.417,1.417,0,0,0,.434-1.056,1.544,1.544,0,0,0-.434-1.093,1.431,1.431,0,0,0-1.075-.459" transform="translate(-139.447 -226.868)" fill="#1ca2b4"/>
      </g>
    </g>
    <path id="Tracé_3597" data-name="Tracé 3597" d="M131.71,206.739a4.95,4.95,0,0,0-3.695-1.527H124.9a2.374,2.374,0,0,0,.7,1.609,1.821,1.821,0,0,0,1.42.647h1a2.974,2.974,0,0,1,2.909,2.9v2.872H110.1v-9.652a2.131,2.131,0,0,0-.7-1.671,2.484,2.484,0,0,0-1.653-.66v14.251h25.543v-3.167l.019-.421V210.4a4.682,4.682,0,0,0-1.6-3.663" transform="translate(-12.881 -58.071)" fill="#1ca2b4"/>
    <path id="Tracé_3598" data-name="Tracé 3598" d="M165.738,203.269a1.364,1.364,0,0,0,1.062-.452,1.625,1.625,0,0,0,.408-1.118,1.425,1.425,0,0,0-.408-1.062,1.462,1.462,0,0,0-1.062-.4,1.528,1.528,0,0,0-1.081.4,1.391,1.391,0,0,0-.427,1.062,1.546,1.546,0,0,0,.427,1.118,1.423,1.423,0,0,0,1.081.452" transform="translate(-33.87 -57.692)" fill="#1ca2b4"/>
    <path id="Tracé_3599" data-name="Tracé 3599" d="M160.2,203.269a1.452,1.452,0,0,0,1.081-.452,1.561,1.561,0,0,0,.434-1.118,1.374,1.374,0,0,0-.434-1.062,1.55,1.55,0,0,0-1.081-.4,1.442,1.442,0,0,0-1.049.4,1.4,1.4,0,0,0-.408,1.062,1.614,1.614,0,0,0,.408,1.118,1.347,1.347,0,0,0,1.049.452" transform="translate(-31.83 -57.692)" fill="#1ca2b4"/>
    <path id="Tracé_3600" data-name="Tracé 3600" d="M196.817,203.269a1.427,1.427,0,0,0,1.056-.452,1.54,1.54,0,0,0,.44-1.118,1.357,1.357,0,0,0-.44-1.062,1.531,1.531,0,0,0-1.056-.4,1.479,1.479,0,0,0-1.043.4,1.374,1.374,0,0,0-.434,1.062,1.551,1.551,0,0,0,.434,1.118,1.39,1.39,0,0,0,1.043.452" transform="translate(-45.432 -57.692)" fill="#1ca2b4"/>
    <path id="Tracé_3601" data-name="Tracé 3601" d="M191.246,203.269a1.4,1.4,0,0,0,1.049-.452,1.561,1.561,0,0,0,.434-1.118,1.374,1.374,0,0,0-.434-1.062,1.5,1.5,0,0,0-1.049-.4,1.531,1.531,0,0,0-1.056.4,1.357,1.357,0,0,0-.44,1.062,1.53,1.53,0,0,0,.44,1.118,1.427,1.427,0,0,0,1.056.452" transform="translate(-43.354 -57.692)" fill="#1ca2b4"/>
    <path id="Tracé_3602" data-name="Tracé 3602" d="M250.264,203.269a1.708,1.708,0,0,0,1.169-.452,1.429,1.429,0,0,0,.515-1.118,1.27,1.27,0,0,0-.515-1.062,1.864,1.864,0,0,0-1.169-.4,1.555,1.555,0,0,0-1.087.4,1.369,1.369,0,0,0-.427,1.062,1.572,1.572,0,0,0,.427,1.118,1.427,1.427,0,0,0,1.087.452" transform="translate(-65.281 -57.692)" fill="#1ca2b4"/>
    <path id="Tracé_3603" data-name="Tracé 3603" d="M231.2,212.416a3.134,3.134,0,0,1-2.086.848H226.3V210.3a3.343,3.343,0,0,1,.848-2.061,2.957,2.957,0,0,1,2.048-.861,2.808,2.808,0,0,1,2.011.9v-.019a3,3,0,0,1,.829,1.967,3.879,3.879,0,0,1-.829,2.187m-26.052-1.439a6.125,6.125,0,0,1-.748,1.389,2.231,2.231,0,0,1-2.111.892h-6.56v-3.349a3.61,3.61,0,0,1,1.068-1.8,2.47,2.47,0,0,1,1.841-.754h6.5v3.626Zm-21.962,2.281h-2.909a2.815,2.815,0,0,1-1.986-.917v.019a3,3,0,0,1-.93-2.067,3.407,3.407,0,0,1,1.15-2.268,2.347,2.347,0,0,1,1.785-.66,2.68,2.68,0,0,1,2.011.917,2.866,2.866,0,0,1,.88,2v2.972Zm-19.473,0h-2.828a2.917,2.917,0,0,1-2.1-.917v.019a3.336,3.336,0,0,1-.792-2.023,3.533,3.533,0,0,1,.817-2.08,3.261,3.261,0,0,1,2.344-.88,2.478,2.478,0,0,1,1.678.88,2.81,2.81,0,0,1,.88,2.042Zm65.319-8.144a5.181,5.181,0,0,0-5.165,5.2v2.947h-7.157v-8.552a2.187,2.187,0,0,0-1.031.239,3.927,3.927,0,0,0-.848.735,1.892,1.892,0,0,0-.471,1.326v6.252h-7.672a8.624,8.624,0,0,0,.817-2.143V205.1h-8.866a5.422,5.422,0,0,0-2.9.867v-2.338q0-2.111-2.356-2.331v11.964H185.54V210.3a5.461,5.461,0,0,0-1.521-3.733,5.758,5.758,0,0,0-3.783-1.47A5.071,5.071,0,0,0,175,210.543a4.851,4.851,0,0,0,.936,2.721h-9.8v-2.947a5.257,5.257,0,0,0-5.215-5.2,5.516,5.516,0,0,0-3.82,1.464,5.023,5.023,0,0,0-1.47,3.726,5.08,5.08,0,0,0,1.514,3.789,5.267,5.267,0,0,0,3.739,1.433h68.228a5.408,5.408,0,0,0,3.77-1.433,4.964,4.964,0,0,0,1.5-3.695,5.216,5.216,0,0,0-1.5-3.77,5.655,5.655,0,0,0-3.846-1.514" transform="translate(-30.674 -58.086)" fill="#1ca2b4"/>
    <path id="Tracé_3604" data-name="Tracé 3604" d="M298.988,203.269a1.364,1.364,0,0,0,1.062-.452,1.625,1.625,0,0,0,.408-1.118,1.425,1.425,0,0,0-.408-1.062,1.462,1.462,0,0,0-1.062-.4,1.528,1.528,0,0,0-1.081.4,1.391,1.391,0,0,0-.427,1.062,1.546,1.546,0,0,0,.427,1.118,1.413,1.413,0,0,0,1.081.452" transform="translate(-83.39 -57.692)" fill="#1ca2b4"/>
    <path id="Tracé_3605" data-name="Tracé 3605" d="M293.438,203.269a1.452,1.452,0,0,0,1.081-.452,1.561,1.561,0,0,0,.434-1.118,1.374,1.374,0,0,0-.434-1.062,1.55,1.55,0,0,0-1.081-.4,1.442,1.442,0,0,0-1.049.4,1.425,1.425,0,0,0-.408,1.062,1.614,1.614,0,0,0,.408,1.118,1.356,1.356,0,0,0,1.049.452" transform="translate(-81.346 -57.692)" fill="#1ca2b4"/>
    <path id="Tracé_3606" data-name="Tracé 3606" d="M320.442,200.626a1.6,1.6,0,0,0-1.1-.4,1.4,1.4,0,0,0-1.043.4,1.463,1.463,0,0,0-.39,1.062,1.661,1.661,0,0,0,.39,1.118,1.307,1.307,0,0,0,1.043.452,1.494,1.494,0,0,0,1.1-.452,1.546,1.546,0,0,0,.446-1.118,1.35,1.35,0,0,0-.446-1.062" transform="translate(-90.983 -57.688)" fill="#1ca2b4"/>
    <path id="Tracé_3607" data-name="Tracé 3607" d="M296.971,215.469h-2.828a2.917,2.917,0,0,1-2.1-.917v.019a3.336,3.336,0,0,1-.792-2.023,3.492,3.492,0,0,1,.817-2.08,3.261,3.261,0,0,1,2.344-.88,2.466,2.466,0,0,1,1.678.88,2.82,2.82,0,0,1,.88,2.042Zm10.431-5.882v2.941a3.065,3.065,0,0,1-.867,2.111,2.767,2.767,0,0,1-1.967.829H299.4v-2.947a5.257,5.257,0,0,0-5.215-5.2,5.516,5.516,0,0,0-3.82,1.464,5.023,5.023,0,0,0-1.47,3.726A5.08,5.08,0,0,0,290.4,216.3a5.268,5.268,0,0,0,3.739,1.433h10.425a5.144,5.144,0,0,0,3.77-1.47,5.023,5.023,0,0,0,1.489-3.733V207.25c-1.615.176-2.426.949-2.426,2.338" transform="translate(-80.198 -60.297)" fill="#1ca2b4"/>
    <path id="Tracé_3608" data-name="Tracé 3608" d="M349.834,212.4a3.134,3.134,0,0,1-2.086.848h-2.821v-2.96a3.343,3.343,0,0,1,.848-2.061,2.957,2.957,0,0,1,2.048-.861,2.808,2.808,0,0,1,2.011.9v-.019a3,3,0,0,1,.829,1.967,3.878,3.878,0,0,1-.829,2.187m-2.168-7.3a5.192,5.192,0,0,0-5.172,5.2v2.947h-13.6V203.6a2.131,2.131,0,0,0-.7-1.671,2.515,2.515,0,0,0-1.653-.66v14.251h21.207a5.408,5.408,0,0,0,3.77-1.433,4.964,4.964,0,0,0,1.5-3.695,5.216,5.216,0,0,0-1.5-3.77,5.659,5.659,0,0,0-3.852-1.521" transform="translate(-94.19 -58.075)" fill="#1ca2b4"/>
    <path id="Tracé_3609" data-name="Tracé 3609" d="M373.146,195.893c.038-.93.44-1.389,1.213-1.364a2.742,2.742,0,0,1,.258-.9H374.6a.33.33,0,0,0,.038-.145,1.015,1.015,0,0,0-.459-.276,2.1,2.1,0,0,0-1.7.773,3.054,3.054,0,0,0-.679,1.91h-.641v1.376h3.619v-1.376" transform="translate(-110.772 -55.079)" fill="#1ca2b4"/>
    <path id="Tracé_3610" data-name="Tracé 3610" d="M372.3,201.31v11.8l.019.107v.075c0,1.389.8,2.124,2.407,2.224l-.019-11.889c0-1.42-.8-2.193-2.407-2.319" transform="translate(-111.196 -58.09)" fill="#1ca2b4"/>
  </g>
</svg>
