<svg xmlns="http://www.w3.org/2000/svg" width="122.102" height="138.145" viewBox="0 0 122.102 138.145">
  <g id="_380496" data-name="380496" transform="translate(-25.1 -11.456)">
    <path id="Tracé_3493" data-name="Tracé 3493" d="M85.311,94.392A45.63,45.63,0,0,1,39.7,48.781l.316-6.32h7.163V32.875h.843V31.4H51.5l.948,1.58h1.791V45.2h1.475v1.685h.421V37.194h5.688v2.528h1.9v4.74h3.265V39.827H71.3l1.475,2V47.1h8.848v1.264H71.407V42.144l-.843-1.053H68.247V47.2H66.456v-1.58h-4V40.986h-1.9V38.352H57.4v9.9h-3.16v-1.9H52.867V34.244H51.6l-.948-1.58H49.286v1.475h-.843v9.586H41.28l-.211,5.056a44.347,44.347,0,1,0,88.694.211h-4.635V41.2H122.5v-4h-3.055V35.4h-3.792v1.264l-.843.843v7.163h-3.9V39.3l-1.053-1.053h-2.107v-1.9h-2.423v11.8h-3.9V43.83H97.846v4.319h-9.27V46.885h8.006V42.46h6.11v4.424h1.264v-11.8h5.056v1.791h1.475l1.58,1.9v4.635h1.264V36.878l.843-.843v-1.9H120.7V35.93h3.16v4H126.5v7.795h4.53v1.159A45.834,45.834,0,0,1,85.311,94.392" transform="translate(0.779 1.065)" fill="#80bd42"/>
    <path id="Tracé_3494" data-name="Tracé 3494" d="M67.764,74.96a4.48,4.48,0,0,0-1.159.211,2.205,2.205,0,0,0-.632,2.949,2.048,2.048,0,0,0,1.475.948h.632A12.6,12.6,0,0,0,75.348,75.7l.421-.316.211.421A6.427,6.427,0,0,0,80.3,78.857h.316a2.725,2.725,0,0,0,2.844-1.9,2.408,2.408,0,0,0-1.264-2.423,3.18,3.18,0,0,0-2.212.211c-.211.105-.316.316-.421.843-.105.421-.211,1.053-.948,1.053a1.958,1.958,0,0,1-1.58-.948.637.637,0,0,1,0-.843A20.954,20.954,0,0,1,82.09,69.8c.843-.632,1.58-1.369,2.423-2.107l.316-.211.316.211c.737.737,1.58,1.369,2.423,2.107a16.422,16.422,0,0,1,5.056,5.372.478.478,0,0,1,0,.527,2.037,2.037,0,0,1-1.475,1.159.507.507,0,0,1-.632-.211,1,1,0,0,1-.211-.737v-.421c-.211-.527-.843-.632-1.475-.843A2.391,2.391,0,0,0,86.3,76.435a2.317,2.317,0,0,0,.211,1.475,2.944,2.944,0,0,0,2.317,1.159,6.4,6.4,0,0,0,4.846-3.16l.211-.421.316.316c1.9,1.475,4.424,3.265,6.847,3.265a6.614,6.614,0,0,0,2-.316A1.763,1.763,0,0,0,104,77.593a2.149,2.149,0,0,0-3.9-1.58l-.211.316-.316-.105A6.589,6.589,0,0,1,96.1,73.59a1.668,1.668,0,0,1,.105-1.58c.211-.527.527-.632.737-.632h.211a5.034,5.034,0,0,0,1.9.632,2.152,2.152,0,0,0,2.107-1.685,2.076,2.076,0,0,0-.316-1.58,2.048,2.048,0,0,0-1.475-.948h-.421a3.516,3.516,0,0,0-2.633,1.264,6.308,6.308,0,0,0-.843,1.685,7.072,7.072,0,0,1-.632,1.58l-.316.527-7.9-7.374.316-.316c8.532-8.216,20.014-11.06,29.389-11.9-1.159-.105-2.423-.211-3.581-.211a41.988,41.988,0,0,0-27.6,10.007l-.211.211.105-.105a48.532,48.532,0,0,0-15.063-8.111A46.21,46.21,0,0,0,53.438,53.26c9.375.843,20.857,3.792,29.389,12.008l.316.316-7.9,7.268-.316-.421a4.966,4.966,0,0,1-.632-1.58,5.589,5.589,0,0,0-.843-1.791,4.774,4.774,0,0,0-2-1.159,2.28,2.28,0,0,0-2.739,1.58v.211a2.5,2.5,0,0,0,1.264,2.423H70.5a4.513,4.513,0,0,0,1.685-.527l.211-.105h.316a.918.918,0,0,1,.843.632,1.432,1.432,0,0,1,0,1.58,7.048,7.048,0,0,1-3.581,2.528l-.316.105-.105-.316a2.206,2.206,0,0,0-1.791-1.053m.316,5.267h-.843a2.949,2.949,0,0,1-2.107-1.475,3.293,3.293,0,0,1,.948-4.319,3.326,3.326,0,0,1,4,.632,5.237,5.237,0,0,0,2.844-2.107v-.527a.8.8,0,0,0-.211-.421l-.211.105a4.8,4.8,0,0,1-2.107.527,1.984,1.984,0,0,1-.843-.211,3.255,3.255,0,0,1-1.791-3.371,2.954,2.954,0,0,1,2.949-2.528,1.793,1.793,0,0,1,.737.105h0a6.7,6.7,0,0,1,2.317,1.475,3.915,3.915,0,0,1,.948,2,3.742,3.742,0,0,0,.421.948l6.531-5.9C72.082,56.21,58.494,54,48.8,53.682l-4-.105,3.9-.737A45.9,45.9,0,0,1,70.081,54a48.532,48.532,0,0,1,15.063,8.111,43.813,43.813,0,0,1,36.131-9.27l4,.737-4.108.105C111.479,53.892,98,56.21,88.2,65.374l6.531,5.9a3.348,3.348,0,0,0,.316-.948,5.873,5.873,0,0,1,.948-2,4.128,4.128,0,0,1,3.792-1.475,3.39,3.39,0,0,1,1.9,1.264,2.854,2.854,0,0,1-.632,4,2.758,2.758,0,0,1-1.791.527,4.8,4.8,0,0,1-2.107-.527,1.189,1.189,0,0,0-.105.843A5,5,0,0,0,100,75.065a3.055,3.055,0,0,1,4.424-.105,2.3,2.3,0,0,1,.421.527,2.624,2.624,0,0,1,.421,2.317,2.317,2.317,0,0,1-1.369,1.58,5.741,5.741,0,0,1-2.317.527,12.107,12.107,0,0,1-6.952-3.16,7.943,7.943,0,0,1-5.372,3.16,4.043,4.043,0,0,1-3.16-1.58,2.565,2.565,0,0,1-.421-2.317A3.136,3.136,0,0,1,88.62,73.59a1.336,1.336,0,0,1,.632.105,2.6,2.6,0,0,1,2,1.264,1.565,1.565,0,0,1,.211.948h0a1.079,1.079,0,0,0,.632-.527,18.462,18.462,0,0,0-4.846-5.056c-.737-.527-1.475-1.159-2.107-1.685l-2.212,1.9a21.617,21.617,0,0,0-4.846,4.951,2.294,2.294,0,0,0,.843.527.8.8,0,0,1,.211-.421,1.784,1.784,0,0,1,.948-1.475,4.1,4.1,0,0,1,2.949-.211,3.255,3.255,0,0,1,1.791,3.371A3.584,3.584,0,0,1,80.4,79.805a7.046,7.046,0,0,1-4.635-3.055,14.2,14.2,0,0,1-7.69,3.476" transform="translate(1.052 2.168)" fill="#80bd42"/>
    <path id="Tracé_3495" data-name="Tracé 3495" d="M100.545,23.406l1.159.843-.843-1.053c-5.056-7.268-10.85-7.584-12.641-7.374a4.629,4.629,0,0,1,1.9-1.264l.632-.211-.632-.211a5.207,5.207,0,0,0-4.951.632A8.8,8.8,0,0,0,83.9,11.5c-.105,0-.211-.105-.211,0-.421.105-1.264,1.264-1.58,3.265a4.73,4.73,0,0,0-4.846-.527l-.527.211.527.211a3.425,3.425,0,0,1,1.685,1.264c-7.479.211-10.112,3.792-12.325,6.742L66.1,23.3l.316.316a13.044,13.044,0,0,1,10.112-3.16c-2.739,1.159-7.9,4.214-9.691,13.273l-.211,1.159.632-.948c2.949-4.74,5.9-7.584,9.375-9.164-2.317,3.371-5.267,9.27-4.108,14.537l.211.948.211-.948a24.918,24.918,0,0,1,6.215-11.587,25.868,25.868,0,0,0-.211,13.589l.316.948V41.208A45.2,45.2,0,0,1,81.9,28.883l.632,4.74-.421.105.316,6.531H81.9l.527,6.636-.632.211v.211s.421,4.214.632,6.531a12.125,12.125,0,0,0-1.791,1.475v.421H86.43v-.421a12.126,12.126,0,0,0-1.791-1.475l.632-6.952h-.632l.421-6.847h-.527l.316-6.531h-.527c.105-.632.316-2.107.632-4.846A34.246,34.246,0,0,1,88.01,41.208l.211,1.58.211-1.58a33.878,33.878,0,0,0-.421-13.8,34.145,34.145,0,0,1,6.32,11.9l.316,1.264.105-1.264a19.554,19.554,0,0,0-4.424-14.537,13.56,13.56,0,0,1,5.162,3.476,29.384,29.384,0,0,1,4.424,5.688l.527.948-.105-1.159a16.665,16.665,0,0,0-9.586-13.273c3.371-.737,8.322,1.9,9.8,2.949" transform="translate(2.188 0)" fill="#80bd42"/>
    <path id="Tracé_3496" data-name="Tracé 3496" d="M30.019,141.424h-.632v-3.687l-1.159,3.687h-.737l-1.159-3.687v3.687H25.7V137h.948l1.159,3.9,1.159-3.9h.948Z" transform="translate(0.032 6.701)" fill="#80bc00"/>
    <path id="Tracé_3497" data-name="Tracé 3497" d="M31.343,137.321a.386.386,0,0,1-.421.421h0a.448.448,0,1,1,.421-.421Zm.211,3.687.105.316a.95.95,0,0,1-.527.105.633.633,0,0,1-.421-.105.387.387,0,0,1-.105-.316v-2.739h.632V140.8c0,.105,0,.211.105.211h.211Z" transform="translate(0.288 6.696)" fill="#80bc00"/>
    <path id="Tracé_3498" data-name="Tracé 3498" d="M35.055,140.939v.316a.789.789,0,0,1-.527.105.633.633,0,0,1-.421-.105.387.387,0,0,1-.105-.316v-1.685a.633.633,0,0,0-.105-.421.387.387,0,0,0-.316-.105c-.211,0-.316.105-.527.105-.211.105-.316.211-.527.316v2.212H32V138.2h.632v.421c.211-.105.316-.211.527-.316a1.336,1.336,0,0,1,.632-.105,1,1,0,0,1,.737.211,1.135,1.135,0,0,1,.211.843v1.58c0,.105,0,.211.105.211Z" transform="translate(0.368 6.765)" fill="#80bc00"/>
    <path id="Tracé_3499" data-name="Tracé 3499" d="M36.143,137.321a.423.423,0,1,1-.843,0,.453.453,0,0,1,.421-.421.372.372,0,0,1,.421.421Zm.211,3.687v.316a.95.95,0,0,1-.527.105.633.633,0,0,1-.421-.105.387.387,0,0,1-.105-.316v-2.739h.737V140.8c0,.105,0,.211.105.211h.211Z" transform="translate(0.544 6.696)" fill="#80bc00"/>
    <path id="Tracé_3500" data-name="Tracé 3500" d="M36.8,141.255l.105-.527a.633.633,0,0,0,.421.105h.421c.527,0,.737-.105.737-.421,0-.105,0-.211-.105-.211-.211-.105-.316-.211-.527-.211-.211-.105-.527-.211-.737-.316a.637.637,0,0,1-.316-.632.751.751,0,0,1,.316-.632,1.565,1.565,0,0,1,.948-.211,1.135,1.135,0,0,1,.843.211l-.105.527a1.953,1.953,0,0,0-.737-.211q-.632,0-.632.316c0,.105,0,.211.105.211a.8.8,0,0,0,.421.211,5.137,5.137,0,0,1,.737.316.834.834,0,0,1,.105,1.159l-.211.211a1.135,1.135,0,0,1-.843.211A3.63,3.63,0,0,1,36.8,141.255Z" transform="translate(0.624 6.765)" fill="#80bc00"/>
    <path id="Tracé_3501" data-name="Tracé 3501" d="M41.091,140.892l.105.421a1.562,1.562,0,0,1-.737.105.8.8,0,0,1-.527-.211.7.7,0,0,1-.105-.632v-1.9H39.3l.105-.527h.421v-.843l.632-.211v1.053h.632v.527h-.632v2.107h.316C40.775,140.892,40.985,140.892,41.091,140.892Z" transform="translate(0.758 6.706)" fill="#80bc00"/>
    <path id="Tracé_3502" data-name="Tracé 3502" d="M42.232,141.36H41.6V138.2h.632v.421c0-.105.105-.211.211-.316a.387.387,0,0,1,.316-.105,1.5,1.5,0,0,1,.632.211l-.105.527h-.527a.7.7,0,0,0-.527.421Z" transform="translate(0.881 6.765)" fill="#80bc00"/>
    <path id="Tracé_3503" data-name="Tracé 3503" d="M44.775,141.255,43.616,138.2h.632l.843,2.212.632-2.212h.632L45.2,141.465a2.153,2.153,0,0,1-.527.948.651.651,0,0,1-.737.211,1.336,1.336,0,0,1-.632-.105l.105-.527a.95.95,0,0,0,.527.105.387.387,0,0,0,.316-.105A1.219,1.219,0,0,0,44.775,141.255Z" transform="translate(0.971 6.765)" fill="#80bc00"/>
    <path id="Tracé_3504" data-name="Tracé 3504" d="M49.18,141.46a1.58,1.58,0,0,1,0-3.16c1.053,0,1.475.527,1.475,1.58A1.322,1.322,0,0,1,49.18,141.46Zm0-.527a1.5,1.5,0,0,0,.632-.211,1.267,1.267,0,0,0,.211-.843,1.135,1.135,0,0,0-.211-.843.91.91,0,0,0-.632-.316,1.129,1.129,0,0,0-.632.211,1.565,1.565,0,0,0-.211.948,1.135,1.135,0,0,0,.211.843A1.5,1.5,0,0,0,49.18,140.933Z" transform="translate(1.201 6.77)" fill="#80bc00"/>
    <path id="Tracé_3505" data-name="Tracé 3505" d="M52.159,141.432h-.632V138.8H51l.105-.527h.421v-.421a.889.889,0,0,1,.211-.737.651.651,0,0,1,.737-.211,1.336,1.336,0,0,1,.632.105l-.105.527h-.737v.843H52.9v.527h-.632Z" transform="translate(1.382 6.694)" fill="#80bc00"/>
    <path id="Tracé_3506" data-name="Tracé 3506" d="M58.824,141.424h-.632v-3.687l-1.264,3.687h-.737l-1.159-3.687v3.687H54.4V137h.948l1.159,3.9,1.159-3.9h.948Z" transform="translate(1.564 6.701)" fill="#80bc00"/>
    <path id="Tracé_3507" data-name="Tracé 3507" d="M62.355,140.944v.316a.789.789,0,0,1-.527.105.633.633,0,0,1-.421-.105.387.387,0,0,1-.105-.316c-.211.105-.316.211-.527.316a.95.95,0,0,1-.527.105,1,1,0,0,1-.737-.211,1.135,1.135,0,0,1-.211-.843V138.1h.632v2.528c0,.105.105.105.316.105a4.562,4.562,0,0,0,.527-.105,1.454,1.454,0,0,0,.421-.316V138.1h.632v2.528c0,.105,0,.211.211.211Z" transform="translate(1.825 6.76)" fill="#80bc00"/>
    <path id="Tracé_3508" data-name="Tracé 3508" d="M65.755,140.939v.316a.95.95,0,0,1-.527.105.633.633,0,0,1-.421-.105.387.387,0,0,1-.105-.316v-2.107a.387.387,0,0,0-.316-.105c-.211,0-.316.105-.527.105-.211.105-.316.211-.527.316v2.212H62.7V138.2h.632v.421c.211-.105.316-.211.527-.316a1.336,1.336,0,0,1,.632-.105,1,1,0,0,1,.737.211,1.135,1.135,0,0,1,.211.843v1.58c0,.105,0,.211.211.211Z" transform="translate(2.007 6.765)" fill="#80bc00"/>
    <path id="Tracé_3509" data-name="Tracé 3509" d="M66.843,137.321a.372.372,0,1,1-.105-.316C66.737,137.111,66.843,137.216,66.843,137.321Zm.211,3.687v.316a.95.95,0,0,1-.527.105.633.633,0,0,1-.421-.105.387.387,0,0,1-.105-.316v-2.739h.632V140.8c0,.105,0,.211.211.211h.211Z" transform="translate(2.183 6.696)" fill="#80bc00"/>
    <path id="Tracé_3510" data-name="Tracé 3510" d="M69.823,140.735l-.105.527a2.916,2.916,0,0,1-.948.105,1.027,1.027,0,0,1-.948-.421,1.679,1.679,0,0,1-.421-1.264,1.584,1.584,0,0,1,.421-1.159,1.253,1.253,0,0,1,1.159-.421,1.565,1.565,0,0,1,.948.211l-.105.527a2.053,2.053,0,0,0-.843-.105c-.632,0-.948.421-.948,1.053,0,.737.316,1.053,1.053,1.053h.421A.387.387,0,0,0,69.823,140.735Z" transform="translate(2.258 6.758)" fill="#80bc00"/>
    <path id="Tracé_3511" data-name="Tracé 3511" d="M71.043,137.321a.386.386,0,0,1-.421.421h0a.448.448,0,1,1,.421-.421Zm.316,3.687.105.316a.95.95,0,0,1-.527.105.633.633,0,0,1-.421-.105.387.387,0,0,1-.105-.316v-2.739h.632V140.8c0,.105,0,.211.105.211h.211Z" transform="translate(2.407 6.696)" fill="#80bc00"/>
    <path id="Tracé_3512" data-name="Tracé 3512" d="M72.432,142.626H71.8V138.2h.632v.421a1,1,0,0,1,1.053-.421.958.958,0,0,1,.843.421,1.766,1.766,0,0,1,.316,1.264,2.024,2.024,0,0,1-.421,1.264,1.221,1.221,0,0,1-1.053.421h-.527c-.105,0-.211-.105-.421-.211v1.264h.211Zm0-3.055v1.053c.105.105.211.211.316.211h.421a1.129,1.129,0,0,0,.632-.211,1.984,1.984,0,0,0,.211-.843,1.135,1.135,0,0,0-.211-.843c-.105-.211-.316-.211-.632-.211a.751.751,0,0,0-.632.316A.789.789,0,0,0,72.432,139.571Z" transform="translate(2.493 6.764)" fill="#80bc00"/>
    <path id="Tracé_3513" data-name="Tracé 3513" d="M77.955,140.949v.316a.95.95,0,0,1-.527.105.633.633,0,0,1-.421-.105.387.387,0,0,1-.105-.316.85.85,0,0,1-.948.421c-.632,0-1.053-.316-1.053-.948a.938.938,0,0,1,.527-.843,3.075,3.075,0,0,1,.948-.211H76.9v-.316a.421.421,0,0,0-.211-.421,1.336,1.336,0,0,0-.632-.105,1.566,1.566,0,0,0-.948.211l.105-.527A3.116,3.116,0,0,1,76.269,138a1.7,1.7,0,0,1,.948.316.819.819,0,0,1,.211.843v1.475c0,.105,0,.211.211.211Zm-.948-.737V139.9h-.421a1.336,1.336,0,0,0-.632.105.8.8,0,0,0-.211.421c0,.316.211.421.527.421a.593.593,0,0,0,.737-.632Z" transform="translate(2.658 6.754)" fill="#80bc00"/>
    <path id="Tracé_3514" data-name="Tracé 3514" d="M79.353,141v.316a.95.95,0,0,1-.527.105.633.633,0,0,1-.421-.105A.387.387,0,0,1,78.3,141v-4h.632v3.9c0,.105,0,.211.105.211Z" transform="translate(2.84 6.701)" fill="#80bc00"/>
    <path id="Tracé_3515" data-name="Tracé 3515" d="M84.055,141.424h-.737l-.843-1.58h-.843v1.58H81V137h1.369c1.053,0,1.58.421,1.58,1.369a2.479,2.479,0,0,1-.211.843,1.079,1.079,0,0,1-.632.527Zm-2.423-2.212h.843c.421,0,.737-.211.737-.843a1.5,1.5,0,0,0-.211-.632.8.8,0,0,0-.421-.211h-.843l-.105,1.685Z" transform="translate(2.984 6.701)" fill="#80bc00"/>
    <path id="Tracé_3516" data-name="Tracé 3516" d="M87.455,140.944v.316a.95.95,0,0,1-.527.105.633.633,0,0,1-.421-.105.387.387,0,0,1-.105-.316,2.3,2.3,0,0,1-.527.316.95.95,0,0,1-.527.105,1,1,0,0,1-.737-.211,1.135,1.135,0,0,1-.211-.843V138.1h.632v2.528a.387.387,0,0,0,.316.105,4.562,4.562,0,0,0,.527-.105,1.454,1.454,0,0,0,.421-.316V138.1h.632v2.528c0,.105,0,.211.211.211Z" transform="translate(3.165 6.76)" fill="#80bc00"/>
    <path id="Tracé_3517" data-name="Tracé 3517" d="M88.432,141.36H87.8V138.2h.632v.421c0-.105.105-.211.211-.316a.387.387,0,0,1,.316-.105,1.5,1.5,0,0,1,.632.211l-.105.527h-.527a.7.7,0,0,0-.527.421Z" transform="translate(3.347 6.765)" fill="#80bc00"/>
    <path id="Tracé_3518" data-name="Tracé 3518" d="M92.655,140.949v.316a.95.95,0,0,1-.527.105.633.633,0,0,1-.421-.105.387.387,0,0,1-.105-.316.85.85,0,0,1-.948.421c-.632,0-1.053-.316-1.053-.948a.938.938,0,0,1,.527-.843,3.075,3.075,0,0,1,.948-.211H91.6v-.316a.421.421,0,0,0-.211-.421,1.336,1.336,0,0,0-.632-.105,3.076,3.076,0,0,0-.948.211l.105-.527A3.116,3.116,0,0,1,90.969,138a1.7,1.7,0,0,1,.948.316.819.819,0,0,1,.211.843v1.475c0,.105,0,.211.211.211Zm-.948-.737V139.9h-.421a1.336,1.336,0,0,0-.632.105.8.8,0,0,0-.211.421c0,.316.211.421.527.421a.593.593,0,0,0,.737-.632Z" transform="translate(3.443 6.754)" fill="#80bc00"/>
    <path id="Tracé_3519" data-name="Tracé 3519" d="M93.948,141l.105.316a.95.95,0,0,1-.527.105.633.633,0,0,1-.421-.105A.387.387,0,0,1,93,141v-4h.632v3.9c0,.105,0,.211.105.211Z" transform="translate(3.624 6.701)" fill="#80bc00"/>
    <path id="Tracé_3520" data-name="Tracé 3520" d="M99.087,141.424h-.737l-.316-1.053h-1.58l-.316,1.053H95.4L96.875,137h.737Zm-1.264-1.58-.632-2-.632,2Z" transform="translate(3.752 6.701)" fill="#80bc00"/>
    <path id="Tracé_3521" data-name="Tracé 3521" d="M100.159,141.432h-.632V138.8H99l.105-.527h.421v-.421a.889.889,0,0,1,.211-.737.651.651,0,0,1,.737-.211,1.336,1.336,0,0,1,.632.105l-.105.527h-.737v.843h.632v.527h-.632Zm2.212,0h-.632V138.8h-.527l.105-.527h.421v-.421a.889.889,0,0,1,.211-.737.651.651,0,0,1,.737-.211,1.336,1.336,0,0,1,.632.105l-.105.527h-.737v.843h.632v.527h-.737S102.371,141.432,102.371,141.432Z" transform="translate(3.944 6.694)" fill="#80bc00"/>
    <path id="Tracé_3522" data-name="Tracé 3522" d="M106.055,140.95v.316a.95.95,0,0,1-.527.105.633.633,0,0,1-.421-.105.387.387,0,0,1-.105-.316.85.85,0,0,1-.948.421c-.632,0-1.053-.316-1.053-.948a.938.938,0,0,1,.527-.843,3.076,3.076,0,0,1,.948-.211H105v-.316a.8.8,0,0,0-.211-.421,1.336,1.336,0,0,0-.632-.105,1.566,1.566,0,0,0-.948.211l.105-.527a3.116,3.116,0,0,1,1.053-.211.97.97,0,0,1,1.159.737v1.9c0,.105,0,.211.211.211Zm-.948-.737V139.9h-.421a1.336,1.336,0,0,0-.632.105.8.8,0,0,0-.211.421c0,.316.211.421.527.421.211,0,.316-.105.527-.211C105.107,140.634,105.107,140.424,105.107,140.213Z" transform="translate(4.158 6.753)" fill="#80bc00"/>
    <path id="Tracé_3523" data-name="Tracé 3523" d="M107.143,137.321a.372.372,0,1,1-.105-.316A.387.387,0,0,1,107.143,137.321Zm.211,3.687v.316a.95.95,0,0,1-.527.105.633.633,0,0,1-.421-.105.387.387,0,0,1-.105-.316v-2.739h.632V140.8c0,.105,0,.211.211.211h.211Z" transform="translate(4.334 6.696)" fill="#80bc00"/>
    <path id="Tracé_3524" data-name="Tracé 3524" d="M108.532,141.36H107.9V138.2h.632v.421c.105-.105.105-.211.211-.316a.387.387,0,0,1,.316-.105,1.5,1.5,0,0,1,.632.211l-.105.527h-.527a.538.538,0,0,0-.527.421Z" transform="translate(4.42 6.765)" fill="#80bc00"/>
    <path id="Tracé_3525" data-name="Tracé 3525" d="M109.9,141.255l.105-.527a.633.633,0,0,0,.421.105h.421c.527,0,.737-.105.737-.421a.368.368,0,0,0-.105-.211c-.211-.105-.316-.211-.527-.211-.211-.105-.527-.211-.737-.316a.637.637,0,0,1-.316-.632.751.751,0,0,1,.316-.632,1.565,1.565,0,0,1,.948-.211,1.135,1.135,0,0,1,.843.211l-.105.527a1.953,1.953,0,0,0-.737-.211q-.632,0-.632.316a.368.368,0,0,0,.105.211.8.8,0,0,0,.421.211c.211.105.527.211.737.316a.911.911,0,0,1,.316.632.705.705,0,0,1-.421.737,1.135,1.135,0,0,1-.843.211A3.63,3.63,0,0,1,109.9,141.255Z" transform="translate(4.526 6.765)" fill="#80bc00"/>
    <path id="Tracé_3526" data-name="Tracé 3526" d="M117.694,140.913l-.105.527h-.421a.792.792,0,0,1-.737-.527.9.9,0,0,1-.527.316,1.336,1.336,0,0,1-.632.105,1.78,1.78,0,0,1-1.053-.316.873.873,0,0,1-.316-.843,1.411,1.411,0,0,1,.843-1.369,3.154,3.154,0,0,1-.421-1.053.956.956,0,0,1,.316-.737,1.2,1.2,0,0,1,.843-.316,3.743,3.743,0,0,1,1.053.211l-.105.527a1.984,1.984,0,0,0-.843-.211c-.316,0-.527.105-.527.421a1.522,1.522,0,0,0,.211.737,15.727,15.727,0,0,0,1.264,1.475.789.789,0,0,0,.105-.527v-.843H117.8l-.105.527h-.527v.632c-.105.211-.105.421-.211.527l.316.316h.316C117.588,140.913,117.694,140.913,117.694,140.913Zm-1.58-.211c-.316-.316-.632-.737-1.053-1.264a.938.938,0,0,0-.527.843c0,.527.211.737.843.737a.633.633,0,0,0,.421-.105c.105-.105.211-.211.316-.211Z" transform="translate(4.738 6.685)" fill="#80bc00"/>
    <path id="Tracé_3527" data-name="Tracé 3527" d="M122.66,141.424h-.632v-2h-1.9v2H119.5V137h.632v1.9h1.9V137h.632Z" transform="translate(5.039 6.701)" fill="#80bc00"/>
    <path id="Tracé_3528" data-name="Tracé 3528" d="M124.775,141.46c-1.053,0-1.475-.527-1.475-1.58s.527-1.58,1.475-1.58,1.475.527,1.475,1.58A1.322,1.322,0,0,1,124.775,141.46Zm0-.527a1.13,1.13,0,0,0,.632-.211,1.267,1.267,0,0,0,.211-.843,1.135,1.135,0,0,0-.211-.843.961.961,0,0,0-1.264,0,3.076,3.076,0,0,0-.211.948,1.135,1.135,0,0,0,.211.843C124.248,140.828,124.564,140.933,124.775,140.933Z" transform="translate(5.242 6.77)" fill="#80bc00"/>
    <path id="Tracé_3529" data-name="Tracé 3529" d="M129.855,140.944v.316a.95.95,0,0,1-.527.105.633.633,0,0,1-.421-.105.387.387,0,0,1-.105-.316,2.3,2.3,0,0,1-.527.316.95.95,0,0,1-.527.105,1,1,0,0,1-.737-.211,1.135,1.135,0,0,1-.211-.843V138.1h.632v2.528a.387.387,0,0,0,.316.105,4.563,4.563,0,0,0,.527-.105,1.454,1.454,0,0,0,.421-.316V138.1h.632v2.528c0,.105,0,.211.211.211Z" transform="translate(5.428 6.76)" fill="#80bc00"/>
    <path id="Tracé_3530" data-name="Tracé 3530" d="M130.1,141.255l.105-.527a.633.633,0,0,0,.421.105h.421c.527,0,.737-.105.737-.421,0-.105,0-.211-.105-.211-.211-.105-.316-.211-.527-.211-.211-.105-.527-.211-.737-.316a.637.637,0,0,1-.316-.632.751.751,0,0,1,.316-.632,1.565,1.565,0,0,1,.948-.211,1.135,1.135,0,0,1,.843.211l-.105.527a1.953,1.953,0,0,0-.737-.211q-.632,0-.632.316a.368.368,0,0,0,.105.211.8.8,0,0,0,.421.211c.211.105.527.211.737.316a.834.834,0,0,1,.105,1.159l-.211.211a1.135,1.135,0,0,1-.843.211A2.917,2.917,0,0,1,130.1,141.255Z" transform="translate(5.604 6.765)" fill="#80bc00"/>
    <path id="Tracé_3531" data-name="Tracé 3531" d="M133.643,137.321a.372.372,0,1,1-.105-.316A.387.387,0,0,1,133.643,137.321Zm.211,3.687v.316a.95.95,0,0,1-.527.105.633.633,0,0,1-.421-.105.387.387,0,0,1-.105-.316v-2.739h.632V140.8c0,.105,0,.211.105.211h.316Z" transform="translate(5.749 6.696)" fill="#80bc00"/>
    <path id="Tracé_3532" data-name="Tracé 3532" d="M137.355,140.939v.316a.789.789,0,0,1-.527.105.633.633,0,0,1-.421-.105.387.387,0,0,1-.105-.316v-2.107a.387.387,0,0,0-.316-.105c-.211,0-.316.105-.527.105-.211.105-.316.211-.527.316v2.212H134.3V138.2h.632v.421c.211-.105.316-.211.527-.316a1.336,1.336,0,0,1,.632-.105,1,1,0,0,1,.737.211,1.135,1.135,0,0,1,.211.843v1.58c0,.105,0,.211.105.211Z" transform="translate(5.829 6.765)" fill="#80bc00"/>
    <path id="Tracé_3533" data-name="Tracé 3533" d="M139.913,141.26v-.316c-.105.105-.316.211-.421.316h-.527q-1.264,0-1.264-1.58a1.412,1.412,0,0,1,1.159-1.58h.421a3.111,3.111,0,0,1,1.369.211v2.949a1.371,1.371,0,0,1-.527,1.369,3.787,3.787,0,0,1-1.159.211,5.288,5.288,0,0,1-1.264-.211l.105-.527a2.123,2.123,0,0,0,1.159.316.889.889,0,0,0,.737-.211C139.913,141.787,140.018,141.576,139.913,141.26Zm0-1.369v-1.053h-.632a.774.774,0,0,0-.632.211.973.973,0,0,0-.316.948,1.135,1.135,0,0,0,.211.843.507.507,0,0,0,.632.211A1.186,1.186,0,0,0,139.913,139.891Z" transform="translate(6.009 6.76)" fill="#80bc00"/>
    <path id="Tracé_3534" data-name="Tracé 3534" d="M31.736,108.789H29.208v-1.053l-.737.948h-.527a2.48,2.48,0,0,1-2.212-.843,2.86,2.86,0,0,1-.632-1.791v-2.528a2.941,2.941,0,0,1,.843-2.107,2.27,2.27,0,0,1,1.791-.527h2.949v6.32h.948Zm-4.951-9.8a.751.751,0,0,1-.632-.316.91.91,0,0,1-.316-.632.751.751,0,0,1,.316-.632c.211-.211.421-.316.632-.211a1.129,1.129,0,0,1,.632.211.91.91,0,0,1,.316.632.751.751,0,0,1-.316.632.442.442,0,0,1-.632.316Zm2.528,8.216v-4.846h-1.58a.892.892,0,0,0-1.053.843v2.844a1.2,1.2,0,0,0,.316.843,1.01,1.01,0,0,0,.948.211ZM29.1,98.993a.751.751,0,0,1-.632-.316.91.91,0,0,1-.316-.632.751.751,0,0,1,.316-.632c.211-.211.421-.316.632-.211a1.129,1.129,0,0,1,.632.211.91.91,0,0,1,.316.632.751.751,0,0,1-.316.632.442.442,0,0,1-.632.316Z" transform="translate(0 4.575)" fill="#006b68"/>
    <path id="Tracé_3535" data-name="Tracé 3535" d="M32.985,108.595H31.3V107.12h1.791c.737,0,1.053-.316,1.053-1.053V100.8h1.475v5.056a2.368,2.368,0,0,1-.948,2.107A2.392,2.392,0,0,1,32.985,108.595Zm.527,3.265a.929.929,0,0,1-.843.948h0a1.129,1.129,0,0,1-.632-.211c-.211-.211-.316-.421-.211-.632a1.129,1.129,0,0,1,.211-.632.961.961,0,0,1,1.264,0h0c.105,0,.211.211.211.527Zm1.475.843a1.129,1.129,0,0,1-.632-.211.91.91,0,0,1-.316-.632.751.751,0,0,1,.316-.632.951.951,0,0,1,1.58.632,1.5,1.5,0,0,1-.211.632,1.953,1.953,0,0,1-.737.211Z" transform="translate(0.331 4.769)" fill="#006b68"/>
    <path id="Tracé_3536" data-name="Tracé 3536" d="M44.552,108.59H37.6v-1.475h4.53v-2.528a1.928,1.928,0,0,0-1.685-2.212h-1.58V100.9h1.159a3.657,3.657,0,0,1,2.633,1.053,3.588,3.588,0,0,1,.948,2.528v2.739h.948Z" transform="translate(0.667 4.774)" fill="#006b68"/>
    <path id="Tracé_3537" data-name="Tracé 3537" d="M48.314,108.755H44.1V107.28h1.791V97.8h1.475v9.48h.948S48.314,108.755,48.314,108.755Z" transform="translate(1.014 4.609)" fill="#006b68"/>
    <path id="Tracé_3538" data-name="Tracé 3538" d="M53.478,108.595H48V107.12h2.949V100.8h1.475v6.32h.948ZM51.792,112.7a1.129,1.129,0,0,1-.632-.211.91.91,0,0,1-.316-.632.751.751,0,0,1,.316-.632.9.9,0,1,1,1.264,1.264,1.129,1.129,0,0,1-.632.211Z" transform="translate(1.222 4.769)" fill="#006b68"/>
    <path id="Tracé_3539" data-name="Tracé 3539" d="M53.732,108.755H53.1V107.28h.632a3.076,3.076,0,0,0,.948-.211,1.47,1.47,0,0,0,.316-.948V97.8h1.475v8.532a2.539,2.539,0,0,1-.737,1.9A4.725,4.725,0,0,1,53.732,108.755Z" transform="translate(1.495 4.609)" fill="#006b68"/>
    <path id="Tracé_3540" data-name="Tracé 3540" d="M59.775,108.76,58.3,109.6V97.7h1.475Z" transform="translate(1.772 4.603)" fill="#006b68"/>
    <path id="Tracé_3541" data-name="Tracé 3541" d="M72.922,109.1v-8.111H74.4v8.216a3.333,3.333,0,0,1-1.791,2.949,5.415,5.415,0,0,1-3.16.737,6.535,6.535,0,0,1-3.371-.948,3.311,3.311,0,0,1-1.475-2.739v-4l1.58-.948V109.1a1.99,1.99,0,0,0,1.159,1.9,4.716,4.716,0,0,0,2.107.421,4.893,4.893,0,0,0,2.423-.632A1.53,1.53,0,0,0,72.922,109.1ZM69.656,99.093a1.138,1.138,0,0,1-.737-.316.911.911,0,0,1-.316-.632.751.751,0,0,1,.316-.632.651.651,0,0,1,.737-.211.86.86,0,0,1,.843.948.751.751,0,0,1-.316.632A.8.8,0,0,1,69.656,99.093Z" transform="translate(2.108 4.58)" fill="#006b68"/>
    <path id="Tracé_3542" data-name="Tracé 3542" d="M77.785,112.7l-1.053-1.369h.211c2.107,0,3.265-.737,3.265-2.317v-.421H78.944a2.618,2.618,0,0,1-2.107-.737,2.7,2.7,0,0,1-.737-1.9v-2.528a2.49,2.49,0,0,1,.843-2,2.941,2.941,0,0,1,1.9-.632h2.949v8.111a3.8,3.8,0,0,1-1.053,2.949A5.958,5.958,0,0,1,77.785,112.7Zm2.317-5.688v-4.846H78.628a1.2,1.2,0,0,0-.843.316.819.819,0,0,0-.211.843v2.528a1.7,1.7,0,0,0,.316.948,1.463,1.463,0,0,0,1.159.211H80.1Z" transform="translate(2.722 4.769)" fill="#006b68"/>
    <path id="Tracé_3543" data-name="Tracé 3543" d="M90.027,108.819h-.948v.211a3.8,3.8,0,0,1-1.053,2.949,4.849,4.849,0,0,1-2.844.948l-1.053-1.369h.211c2.107,0,3.265-.737,3.265-2.317v-.421H86.34a2.618,2.618,0,0,1-2.107-.737,2.22,2.22,0,0,1-.632-1.9v-2.528a2.781,2.781,0,0,1,.737-2,2.941,2.941,0,0,1,1.9-.632H89.29v6.32h.948Zm-2.317-9.8H84.865v-.632H85.5a1.5,1.5,0,0,1-.211-.632A1.087,1.087,0,0,1,86.445,96.6h.737v.632h-.421c-.527,0-.843.211-.843.632s.316.632.843.632H87.6l.105.527Zm-.105,8.216v-4.846H86.129a1.2,1.2,0,0,0-.843.316.819.819,0,0,0-.211.843v2.528a1.7,1.7,0,0,0,.316.948,1.463,1.463,0,0,0,1.159.211H87.6Z" transform="translate(3.121 4.545)" fill="#006b68"/>
    <path id="Tracé_3544" data-name="Tracé 3544" d="M104.453,108.889H89.6v-1.475h4.424v-6.32H95.5v6.32h2.633v-6.32h1.475v6.32h2.633v-6.32h1.475v6.32h.632ZM98.764,98.249a.751.751,0,0,1-.316.632.91.91,0,0,1-.632.316.751.751,0,0,1-.632-.316,1.108,1.108,0,0,1,0-1.369c.211-.211.421-.316.632-.211a1.117,1.117,0,0,1,.948.948Zm.948-2.107a1.5,1.5,0,0,1-.211.632.8.8,0,0,1-.527.211.906.906,0,0,1-.843-.843h0a1.5,1.5,0,0,1,.211-.632c.105-.211.316-.211.632-.211a.8.8,0,0,1,.527.211A1.5,1.5,0,0,1,99.712,96.143Zm1.369,2.107a.751.751,0,0,1-.316.632.91.91,0,0,1-.632.316.751.751,0,0,1-.632-.316c-.211-.211-.316-.421-.211-.632a.86.86,0,0,1,.843-.948h.105a1.129,1.129,0,0,1,.632.211A1.522,1.522,0,0,1,101.082,98.249Z" transform="translate(3.443 4.475)" fill="#006b68"/>
    <path id="Tracé_3545" data-name="Tracé 3545" d="M104.232,108.755H103.6V107.28h.632a3.076,3.076,0,0,0,.948-.211,1.471,1.471,0,0,0,.316-.948V97.8h1.475v8.532a2.539,2.539,0,0,1-.737,1.9A4.357,4.357,0,0,1,104.232,108.755Z" transform="translate(4.19 4.609)" fill="#006b68"/>
    <path id="Tracé_3546" data-name="Tracé 3546" d="M110.375,108.76l-1.475.843V97.7h1.475Z" transform="translate(4.473 4.603)" fill="#006b68"/>
    <path id="Tracé_3547" data-name="Tracé 3547" d="M120.884,100.888v5.162a2.557,2.557,0,0,1-.948,2.212,3.638,3.638,0,0,1-1.9.527,3.036,3.036,0,0,1-2.107-.737,2.6,2.6,0,0,1-.632-1.9v-2.528a2.7,2.7,0,0,1,.843-2.107,2.86,2.86,0,0,1,1.791-.632Zm-4-1.791a.944.944,0,0,1-.948-.948.751.751,0,0,1,.316-.632.774.774,0,0,1,.632-.211,1.129,1.129,0,0,1,.632.211.91.91,0,0,1,.316.632.751.751,0,0,1-.316.632A.637.637,0,0,1,116.881,99.1Zm2.423,6.952v-3.687h-1.475c-.737,0-1.053.421-1.053,1.159v2.528c0,.737.421,1.159,1.264,1.159S119.3,106.892,119.3,106.05Zm0-7.058a.944.944,0,0,1-.948-.948.751.751,0,0,1,.316-.632.961.961,0,0,1,1.264,0,.91.91,0,0,1,.316.632.751.751,0,0,1-.316.632c-.105.211-.421.421-.632.316Z" transform="translate(4.813 4.575)" fill="#006b68"/>
    <path id="Tracé_3548" data-name="Tracé 3548" d="M123.053,112.708,122,111.339a2.15,2.15,0,0,0,1.9-2.423V100.7h1.475v8.532A3.42,3.42,0,0,1,123.053,112.708Z" transform="translate(5.172 4.764)" fill="#006b68"/>
    <path id="Tracé_3549" data-name="Tracé 3549" d="M128.875,108.76l-1.475.843V97.7h1.475Z" transform="translate(5.46 4.603)" fill="#006b68"/>
    <path id="Tracé_3550" data-name="Tracé 3550" d="M131.253,112.9l-1.053-1.369a2.15,2.15,0,0,0,1.9-2.423v-8.216h1.475v8.532A3.42,3.42,0,0,1,131.253,112.9Zm1.58-13.8a.751.751,0,0,1-.632-.316c-.211-.211-.316-.421-.211-.632a1.129,1.129,0,0,1,.211-.632.91.91,0,0,1,.632-.316.806.806,0,0,1,.843.948h0a1.129,1.129,0,0,1-.211.632.637.637,0,0,1-.632.316Z" transform="translate(5.61 4.577)" fill="#006b68"/>
    <path id="Tracé_3551" data-name="Tracé 3551" d="M137.281,112.7l-1.053-1.369h.211c2.107,0,3.265-.737,3.265-2.317v-.421H138.44a2.618,2.618,0,0,1-2.107-.737,2.22,2.22,0,0,1-.632-1.9v-2.528a2.781,2.781,0,0,1,.737-2,2.941,2.941,0,0,1,1.9-.632h2.949v8.111a4.045,4.045,0,0,1-1.159,2.949A5.3,5.3,0,0,1,137.281,112.7Zm2.317-5.688v-4.846h-1.475a1.2,1.2,0,0,0-.843.316.819.819,0,0,0-.211.843v2.528a1.7,1.7,0,0,0,.316.948,1.463,1.463,0,0,0,1.159.211H139.6Z" transform="translate(5.902 4.769)" fill="#006b68"/>
    <path id="Tracé_3552" data-name="Tracé 3552" d="M33.617,129.4v-8.216H35.2v8.322a3.148,3.148,0,0,1-1.791,2.949,6.435,6.435,0,0,1-3.16.843,5.879,5.879,0,0,1-3.476-1.053,2.975,2.975,0,0,1-1.369-2.739v-3.9l1.475-1.053V129.4a1.929,1.929,0,0,0,1.264,1.9,4.716,4.716,0,0,0,2.107.421,4.893,4.893,0,0,0,2.423-.632A1.787,1.787,0,0,0,33.617,129.4ZM30.352,119.4a.751.751,0,0,1-.632-.316.91.91,0,0,1-.316-.632.751.751,0,0,1,.316-.632.951.951,0,0,1,1.58.632.751.751,0,0,1-.316.632A.91.91,0,0,1,30.352,119.4Z" transform="translate(0.015 5.66)" fill="#006b68"/>
    <path id="Tracé_3553" data-name="Tracé 3553" d="M39.128,129.055h0a2.539,2.539,0,0,1-1.9-.737,2.323,2.323,0,0,1-.632-1.58V118.1h1.58v8.532c0,.632.316.948.843.948h.105Z" transform="translate(0.614 5.692)" fill="#006b68"/>
    <path id="Tracé_3554" data-name="Tracé 3554" d="M41.533,128.575H38.9V127.1h2.633Z" transform="translate(0.737 6.173)" fill="#006b68"/>
    <path id="Tracé_3555" data-name="Tracé 3555" d="M50.57,129.06H41.3v-1.475h6.847V123.9a.892.892,0,0,0-.843-1.053H43.091v-2.107c0-1.791.948-2.739,2.844-2.739h2.633v1.58H45.724a1.044,1.044,0,0,0-1.159.843v.737h2.423a2.781,2.781,0,0,1,2,.737,2.51,2.51,0,0,1,.527,1.9v3.687h.948Z" transform="translate(0.865 5.687)" fill="#006b68"/>
    <path id="Tracé_3556" data-name="Tracé 3556" d="M52.528,128.575H50V127.1h2.528Z" transform="translate(1.329 6.173)" fill="#006b68"/>
    <path id="Tracé_3557" data-name="Tracé 3557" d="M63.782,128.9H52.3v-1.475h4.424V121H58.2v6.32h2.633V121h1.475v6.32h1.475c.737,0,1.159-.316,1.159-1.053V121h1.475v5.162a2.781,2.781,0,0,1-.737,2A2.389,2.389,0,0,1,63.782,128.9Z" transform="translate(1.452 5.847)" fill="#006b68"/>
    <path id="Tracé_3558" data-name="Tracé 3558" d="M72.856,129.055H67.8V127.58h2.739l-2.528-6.426h1.58l2.423,6.32h.632a3.075,3.075,0,0,0,.948-.211,1.2,1.2,0,0,0,.316-.843V118.1h1.475v8.532a2.539,2.539,0,0,1-.737,1.9A2.291,2.291,0,0,1,72.856,129.055Zm-2,4.214H67.905v-.737h.632a1.133,1.133,0,0,1,.211-1.475.873.873,0,0,1,.843-.316h.632v.632H69.8c-.527,0-.737.211-.737.632s.211.632.737.632h.948v.632h.105Z" transform="translate(2.279 5.692)" fill="#006b68"/>
    <path id="Tracé_3559" data-name="Tracé 3559" d="M78.775,129.06,77.3,129.9V118h1.475Z" transform="translate(2.786 5.687)" fill="#006b68"/>
    <path id="Tracé_3560" data-name="Tracé 3560" d="M82.487,133.114l-1.053-1.369h.211c2.107,0,3.265-.737,3.265-2.317V128.9H83.645a2.845,2.845,0,0,1-2.212-.737,2.22,2.22,0,0,1-.632-1.9v-2.528A2.39,2.39,0,0,1,83.329,121h3.055v8.111a3.8,3.8,0,0,1-1.053,2.949A4.5,4.5,0,0,1,82.487,133.114Zm2.423-5.688v-4.74H83.435a1.984,1.984,0,0,0-.843.211.819.819,0,0,0-.211.843v2.528a1.7,1.7,0,0,0,.316.948,1.463,1.463,0,0,0,1.159.211Z" transform="translate(2.972 5.847)" fill="#006b68"/>
    <path id="Tracé_3561" data-name="Tracé 3561" d="M97.631,129.087H95.208v-.948l-.737.948h-.527a2.587,2.587,0,0,1-2.212-.843,2.941,2.941,0,0,1-.632-1.9v-2.423a2.941,2.941,0,0,1,.843-2.107,2.86,2.86,0,0,1,1.791-.632h2.949v6.32h.948ZM92.785,119.4a.751.751,0,0,1-.632-.316.91.91,0,0,1-.316-.632.751.751,0,0,1,.316-.632.91.91,0,0,1,.632-.316.751.751,0,0,1,.632.316.91.91,0,0,1,.316.632.751.751,0,0,1-.316.632.91.91,0,0,1-.632.316Zm2.423,8.216v-4.74H93.733a.892.892,0,0,0-1.053.843v2.739A1.2,1.2,0,0,0,93,127.3a1.01,1.01,0,0,0,.948.211ZM95.1,119.4a.751.751,0,0,1-.632-.316.91.91,0,0,1-.316-.632.751.751,0,0,1,.316-.632.91.91,0,0,1,.632-.316.751.751,0,0,1,.632.316.91.91,0,0,1,.316.632.751.751,0,0,1-.316.632.91.91,0,0,1-.632.316Z" transform="translate(3.523 5.66)" fill="#006b68"/>
    <path id="Tracé_3562" data-name="Tracé 3562" d="M99.728,128.575H97.2V127.1h2.528Z" transform="translate(3.848 6.173)" fill="#006b68"/>
    <path id="Tracé_3563" data-name="Tracé 3563" d="M101.185,128.9H99.5v-1.475h1.791c.737,0,1.159-.316,1.159-1.053V121h1.475v5.267a2.368,2.368,0,0,1-.948,2.107A3.013,3.013,0,0,1,101.185,128.9Zm.632,3.265a.751.751,0,0,1-.316.632.91.91,0,0,1-.632.316.86.86,0,0,1-.948-.843v-.105a.751.751,0,0,1,.316-.632.91.91,0,0,1,.632-.316,1.117,1.117,0,0,1,.948.948Zm1.475.948a1.13,1.13,0,0,1-.632-.211c-.211-.211-.316-.421-.211-.632a1.129,1.129,0,0,1,.211-.632.79.79,0,0,1,1.264,0c.211.211.316.421.211.632a1.129,1.129,0,0,1-.211.632,1.5,1.5,0,0,1-.632.211Z" transform="translate(3.971 5.847)" fill="#006b68"/>
    <path id="Tracé_3564" data-name="Tracé 3564" d="M107.585,133.108l-1.053-1.369h.211c2.107,0,3.16-.737,3.265-2.317v-.527h-1.264a2.618,2.618,0,0,1-2.107-.737,2.7,2.7,0,0,1-.737-1.9v-2.528a2.781,2.781,0,0,1,.737-2,2.941,2.941,0,0,1,1.9-.632h2.949v8.111a3.8,3.8,0,0,1-1.053,2.949A4.411,4.411,0,0,1,107.585,133.108Zm2.317-5.688v-4.74h-1.475a1.984,1.984,0,0,0-.843.211.819.819,0,0,0-.211.843v2.528a1.7,1.7,0,0,0,.316.948,1.463,1.463,0,0,0,1.159.211Z" transform="translate(4.313 5.852)" fill="#006b68"/>
    <path id="Tracé_3565" data-name="Tracé 3565" d="M113.653,133.108l-1.053-1.369a2.306,2.306,0,0,0,1.475-.843,2.973,2.973,0,0,0,.421-1.58V121.1h1.475v6.32h.948v1.475h-.948v.737A3.505,3.505,0,0,1,113.653,133.108Z" transform="translate(4.67 5.852)" fill="#006b68"/>
    <path id="Tracé_3566" data-name="Tracé 3566" d="M124.922,129.087H116.6v-1.475h1.9v-3.687a2.526,2.526,0,0,1,2.633-2.739h3.055v6.32h.843v1.58Zm-4.846-9.691a.751.751,0,0,1-.632-.316.91.91,0,0,1-.316-.632.751.751,0,0,1,.316-.632.951.951,0,0,1,1.58.632.751.751,0,0,1-.316.632.91.91,0,0,1-.632.316Zm2.423,8.216v-4.74h-1.475c-.737,0-1.053.421-1.053,1.159v3.687Zm-.105-8.216a.751.751,0,0,1-.632-.316.91.91,0,0,1-.316-.632.751.751,0,0,1,.316-.632.91.91,0,0,1,.632-.316.751.751,0,0,1,.632.316.91.91,0,0,1,.316.632.751.751,0,0,1-.316.632.91.91,0,0,1-.632.316Z" transform="translate(4.884 5.66)" fill="#006b68"/>
    <path id="Tracé_3567" data-name="Tracé 3567" d="M127.028,128.575H124.5V127.1h2.528Z" transform="translate(5.306 6.173)" fill="#006b68"/>
    <path id="Tracé_3568" data-name="Tracé 3568" d="M127.432,129.055H126.8V127.58h.632a3.076,3.076,0,0,0,.948-.211,1.2,1.2,0,0,0,.316-.843V118.1h1.475v8.532a2.538,2.538,0,0,1-.737,1.9A3.575,3.575,0,0,1,127.432,129.055Z" transform="translate(5.428 5.692)" fill="#006b68"/>
    <path id="Tracé_3569" data-name="Tracé 3569" d="M133.58,129.06,132,129.9V118h1.58Z" transform="translate(5.706 5.687)" fill="#006b68"/>
    <path id="Tracé_3570" data-name="Tracé 3570" d="M137.281,133.11l-1.053-1.369h.211c2.107,0,3.16-.737,3.265-2.317V128.9H138.44a2.618,2.618,0,0,1-2.107-.737,2.22,2.22,0,0,1-.632-1.9v-2.528a2.781,2.781,0,0,1,.737-2,2.457,2.457,0,0,1,1.9-.632h2.949v8.111a3.8,3.8,0,0,1-1.053,2.949A4.928,4.928,0,0,1,137.281,133.11Zm2.317-5.688v-4.74h-1.475a1.984,1.984,0,0,0-.843.211.819.819,0,0,0-.211.843v2.528a1.288,1.288,0,0,0,.316.948,1.463,1.463,0,0,0,1.159.211Z" transform="translate(5.902 5.851)" fill="#006b68"/>
  </g>
</svg>
