<svg xmlns="http://www.w3.org/2000/svg" width="108.184" height="88.285" viewBox="0 0 108.184 88.285">
  <path id="crown" d="M102.621,12.113a8.988,8.988,0,0,0-9.827,1.956L81.138,25.726,60.466,5.054a9.015,9.015,0,0,0-12.748,0L27.046,25.726,15.389,14.069A9.015,9.015,0,0,0,0,20.443V68.161A22.565,22.565,0,0,0,22.538,90.7H85.645a22.565,22.565,0,0,0,22.538-22.538V20.443A9.015,9.015,0,0,0,102.621,12.113ZM99.168,68.161A13.523,13.523,0,0,1,85.645,81.684H22.538A13.523,13.523,0,0,1,9.015,68.161V20.443L23.859,35.287a4.508,4.508,0,0,0,6.374,0L54.092,11.428,77.951,35.287a4.508,4.508,0,0,0,6.374,0L99.168,20.443Z" transform="translate(0 -2.414)" fill="#86637a"/>
</svg>
