<svg xmlns="http://www.w3.org/2000/svg" width="108.184" height="108.184" viewBox="0 0 108.184 108.184">
  <path id="house-building_1_" data-name="house-building (1)" d="M85.645,67.615H81.138a4.508,4.508,0,0,1,0-9.015h4.508a4.508,4.508,0,1,1,0,9.015Zm4.508,13.523a4.5,4.5,0,0,0-4.508-4.508H81.138a4.508,4.508,0,0,0,0,9.015h4.508A4.5,4.5,0,0,0,90.153,81.138ZM72.122,27.046a4.5,4.5,0,0,0-4.508-4.508H63.107a4.508,4.508,0,1,0,0,9.015h4.508A4.5,4.5,0,0,0,72.122,27.046Zm18.031,0a4.5,4.5,0,0,0-4.508-4.508H81.138a4.508,4.508,0,0,0,0,9.015h4.508A4.5,4.5,0,0,0,90.153,27.046Zm0,18.031a4.5,4.5,0,0,0-4.508-4.508H81.138a4.508,4.508,0,0,0,0,9.015h4.508A4.5,4.5,0,0,0,90.153,45.076Zm18.031,40.569V22.538A22.564,22.564,0,0,0,85.645,0H63.107A22.564,22.564,0,0,0,40.569,22.538a4.508,4.508,0,0,0,9.015,0A13.539,13.539,0,0,1,63.107,9.015H85.645A13.539,13.539,0,0,1,99.168,22.538V85.645A13.539,13.539,0,0,1,85.645,99.168H81.138a4.508,4.508,0,0,0,0,9.015h4.508A22.564,22.564,0,0,0,108.184,85.645ZM72.122,87.9V69.183a22.41,22.41,0,0,0-8.65-17.751L49.949,40.844a22.508,22.508,0,0,0-27.776,0L8.65,51.428A22.4,22.4,0,0,0,0,69.179V87.895a20.309,20.309,0,0,0,20.284,20.284H51.838A20.309,20.309,0,0,0,72.122,87.895ZM44.4,47.948,57.919,58.532a13.461,13.461,0,0,1,5.188,10.652V87.9A11.279,11.279,0,0,1,51.838,99.168H20.284A11.279,11.279,0,0,1,9.015,87.9V69.183A13.454,13.454,0,0,1,14.2,58.532L27.727,47.952a13.507,13.507,0,0,1,16.669,0Zm.681,33.19V72.122a4.509,4.509,0,0,0-4.508-4.508H31.554a4.509,4.509,0,0,0-4.508,4.508v9.015a4.509,4.509,0,0,0,4.508,4.508h9.015A4.509,4.509,0,0,0,45.076,81.138Z" fill="#86637a"/>
</svg>
