<svg id="instagram_17_" data-name="instagram (17)" xmlns="http://www.w3.org/2000/svg" width="17.206" height="17.206" viewBox="0 0 17.206 17.206">
  <path id="Tracé_1" data-name="Tracé 1" d="M8.6,1.55c2.3,0,2.569.009,3.476.05a3.8,3.8,0,0,1,2.587.94,3.771,3.771,0,0,1,.94,2.587c.042.907.05,1.179.05,3.476s-.009,2.569-.05,3.476a3.814,3.814,0,0,1-.94,2.587,3.769,3.769,0,0,1-2.587.94c-.907.042-1.179.05-3.476.05s-2.569-.009-3.476-.05a3.841,3.841,0,0,1-2.587-.94,3.791,3.791,0,0,1-.94-2.587c-.042-.907-.05-1.179-.05-3.476s.009-2.569.05-3.476A3.827,3.827,0,0,1,2.54,2.54,3.779,3.779,0,0,1,5.127,1.6c.907-.042,1.179-.05,3.476-.05M8.6,0C6.267,0,5.973.01,5.056.052A5.317,5.317,0,0,0,1.444,1.444,5.308,5.308,0,0,0,.052,5.056C.01,5.973,0,6.267,0,8.6s.01,2.63.052,3.547a5.322,5.322,0,0,0,1.392,3.612,5.312,5.312,0,0,0,3.612,1.392c.918.042,1.211.052,3.547.052s2.63-.01,3.547-.052a5.32,5.32,0,0,0,3.612-1.392,5.306,5.306,0,0,0,1.392-3.612c.042-.918.052-1.211.052-3.547s-.01-2.63-.052-3.547a5.319,5.319,0,0,0-1.392-3.612A5.317,5.317,0,0,0,12.15.052C11.233.01,10.939,0,8.6,0Z" transform="translate(0 0)" fill="#fff"/>
  <path id="Tracé_2" data-name="Tracé 2" d="M10.256,5.838a4.418,4.418,0,1,0,4.418,4.418A4.418,4.418,0,0,0,10.256,5.838Zm0,7.285a2.868,2.868,0,1,1,2.868-2.868A2.868,2.868,0,0,1,10.256,13.123Z" transform="translate(-1.653 -1.653)" fill="#fff"/>
  <ellipse id="Ellipse_1" data-name="Ellipse 1" cx="1.032" cy="1.032" rx="1.032" ry="1.032" transform="translate(12.163 2.978)" fill="#fff"/>
</svg>
