<svg id="linkedin_7_" data-name="linkedin (7)" xmlns="http://www.w3.org/2000/svg" width="17.211" height="17.21" viewBox="0 0 17.211 17.21">
  <path id="Path_2520" d="M14.665,16.447h-2.55V12.453c0-.952-.017-2.178-1.326-2.178-1.328,0-1.532,1.037-1.532,2.109v4.063H6.707V8.234H9.155V9.356h.034A2.684,2.684,0,0,1,11.6,8.029c2.585,0,3.061,1.7,3.061,3.912ZM3.829,7.111a1.48,1.48,0,1,1,1.48-1.48,1.48,1.48,0,0,1-1.48,1.48h0M5.1,16.447H2.551V8.234H5.1ZM15.936,1.783H1.27A1.256,1.256,0,0,0,0,3.024V17.75a1.256,1.256,0,0,0,1.27,1.242H15.936a1.259,1.259,0,0,0,1.275-1.242V3.023a1.259,1.259,0,0,0-1.275-1.241" transform="translate(0 -1.782)" fill="#fff"/>
</svg>
