<svg xmlns="http://www.w3.org/2000/svg" width="17.537" height="17.547" viewBox="0 0 17.537 17.547">
  <path id="paper-plane-top_1_" data-name="paper-plane-top (1)" d="M2.951.207a2.066,2.066,0,0,0-2.3.342A1.961,1.961,0,0,0,.131,2.72L3.444,8.783.193,14.842a1.963,1.963,0,0,0,.526,2.17,2.033,2.033,0,0,0,1.38.537,2.249,2.249,0,0,0,.974-.228L17.536,8.778ZM1.486,2.164a.515.515,0,0,1,.157-.538A.6.6,0,0,1,2.3,1.517L13.406,8.048h-8.7L1.486,2.164Zm.9,13.866a.6.6,0,0,1-.679-.1.516.516,0,0,1-.157-.539L4.713,9.511h8.7L2.385,16.03Z" transform="translate(17.536 17.549) rotate(180)" fill="#fff"/>
</svg>
