<svg xmlns="http://www.w3.org/2000/svg" width="108.184" height="108.184" viewBox="0 0 108.184 108.184">
  <path id="users-alt_6_" data-name="users-alt (6)" d="M54.092,72.122A18.031,18.031,0,1,1,72.122,54.092,18.031,18.031,0,0,1,54.092,72.122Zm0-27.046a9.015,9.015,0,1,0,9.015,9.015A9.015,9.015,0,0,0,54.092,45.076Zm27.046,58.6a27.046,27.046,0,1,0-54.092,0,4.508,4.508,0,0,0,9.015,0,18.031,18.031,0,1,1,36.061,0,4.508,4.508,0,0,0,9.015,0Zm0-67.615A18.031,18.031,0,1,1,99.168,18.031,18.031,18.031,0,0,1,81.138,36.061Zm0-27.046a9.015,9.015,0,1,0,9.015,9.015A9.015,9.015,0,0,0,81.138,9.015Zm27.046,58.6A27.073,27.073,0,0,0,81.138,40.569a4.508,4.508,0,0,0,0,9.015A18.031,18.031,0,0,1,99.168,67.615a4.508,4.508,0,1,0,9.015,0ZM27.046,36.061A18.031,18.031,0,1,1,45.076,18.031,18.031,18.031,0,0,1,27.046,36.061Zm0-27.046a9.015,9.015,0,1,0,9.015,9.015A9.015,9.015,0,0,0,27.046,9.015ZM9.015,67.615A18.031,18.031,0,0,1,27.046,49.584a4.508,4.508,0,1,0,0-9.015A27.073,27.073,0,0,0,0,67.615a4.508,4.508,0,0,0,9.015,0Z" fill="#86637a"/>
</svg>
